<svg viewBox="0 0 100 100" xmlns="http://www.w3.org/2000/svg"><defs><linearGradient id="prefix__a" x1="0" x2="1" y1="1" y2="0"><stop stop-color="rgba(235, 81, 96, 1)" offset="0%"/></linearGradient></defs><path fill="url(#prefix__a)" d="M23.2-35.3c7.1 3.9 13.4 9.8 15 16.8 1.6 7-1.7 15.2-3.9 22.7-2.2 7.6-3.4 14.5-7.3 19.5-3.8 5-10.3 7.9-17.4 10.8-7.1 3-14.7 5.9-22.6 5.6-8-.4-16.2-4-22.3-10.1-6.1-6-10.1-14.5-10.7-23-.7-8.5 2.1-17.1 6.9-23.7 4.8-6.6 11.6-11.1 18.4-15.1 6.9-4.1 13.8-7.7 21.2-8.5 7.5-.9 15.5 1.1 22.7 5z" transform="translate(50 50)" style="transition:all .3s ease 0s"/></svg>